<svg id="Layer_1" data-name="Layer 1" xmlns="http://www.w3.org/2000/svg" viewBox="0 0 165.43 99.9"><defs><style>.cls-1{fill:#496557;}.cls-2{fill:#47845c;}.cls-3{fill:#56a971;}</style></defs><path class="cls-1" d="M235.82,285.64c10.78,9.45,22.14,15.79,35.51,18.29-21-10.29-39.22-23.53-50.08-44.95,3.69.77,6.8,2.11,8.3,5.88a36.94,36.94,0,0,0,3.47,6.58c1.53,2.35,3,5,5.19,6.61,3.06,2.28,4.68-1.8,7.12-2.66,13.95-5,26-1.8,36.89,7.72a67.4,67.4,0,0,1,10.48,12c6.26,8.89,13.39,16.83,23.58,22.05-2.79,1.89-5.72,1.36-8.32,1.56-18.27,1.39-36.45,1.48-53.68-6.24-7.1-3.18-13.26-7.49-17.06-14.56C235.26,294.26,234.77,290.5,235.82,285.64Z" transform="translate(-221.25 -258.98)"/><path class="cls-2" d="M386.68,345.05c-4.31-1.28-7.2-3.42-8.59-7.4a15.56,15.56,0,0,0-2.18-3.89c-1.65-2.28-3.06-5-5.27-6.55-2.94-2-4.67,1.8-7.09,2.7-13.4,5-24.75,1.31-34.83-7.83a63.3,63.3,0,0,1-8.25-9.28c-6-8.14-12.77-15.46-21.75-20.75,21.63-2.87,43-4.65,62.78,7.06,7.43,4.41,12.54,10.66,11.4,21.07-10.1-8.38-20.71-14.34-33.27-16.35,18,8.44,33.95,19.38,45,36.36C385.5,341.58,386.59,343,386.68,345.05Z" transform="translate(-221.25 -258.98)"/><path class="cls-3" d="M266.41,358.88c10.19-11.8,22.53-17.65,36.66-21.12-4.14-1.18-5.77-1.1-11.95,1-3.71,1.25-7.33,2.76-11.49,4.35.25-5.42,3.47-8.34,7.37-10.62,4.22-2.47,8.92-3.35,13.79-3.66,11.07-.71,21.58,1.65,33.11,5.56-8.87,2.74-14.66,8.1-20.63,13.27-8.18,7.09-20.72,11.23-31,1.84-1.37-1.24-2.35-.88-3.39.12a56.86,56.86,0,0,0-5.53,5.67C271.81,357.2,270.18,358.52,266.41,358.88Z" transform="translate(-221.25 -258.98)"/></svg>