<svg id="Layer_1" data-name="Layer 1" xmlns="http://www.w3.org/2000/svg" width="50.21mm" height="36.3mm" viewBox="0 0 142.33 102.91">
  <defs>
    <style>
      .cls-1 {
        fill: #5eb566;
      }
    </style>
  </defs>
  <path class="cls-1" d="M291,158.61a81.7,81.7,0,0,1,18.33,1.7c19,4,28.61,16.82,33.49,34,1,3.41,1.37,7,2,10.46.31,1.59.15,3.05-1.42,4s-2.61,0-3.84-.73c-5-2.85-8.09-6.36-8.94-12.63-1.77-13.09-13.8-23.11-27.52-24.94-10.58-1.4-20.9.4-31.28,1.61-10,1.17-19.9,2.72-29.87,4-2.25.29-3.85.5-2.87,3.4,5,14.81,10.42,29.44,19.22,42.58,7.93,11.84,17.89,21.06,33.07,22.86,13.77,1.63,25.94-2.23,36.78-10.54,2-1.5,1.66-2.4-.1-3.73-11.32-8.52-23-16.43-37.1-19.95-4.15-1-6.12-3.64-5.42-7s3.85-5.26,8.14-4.48c8.66,1.57,16.4,5.43,23.82,9.83C335,219.39,350.42,232,362,248.71a28.82,28.82,0,0,1,2.38,3.84c1.55,3.21.57,6.71-2.33,8.19-3.34,1.68-6.09.48-7.95-2.34a128.38,128.38,0,0,0-11.54-15.06c-2.12-2.36-3.5-2.46-6.09-.32-19.38,16-51.48,21-74.26,1.3-9.6-8.28-16.43-18.54-22-29.7-7.23-14.55-12.11-30-17.08-45.31-1-3.13,0-4.44,3.2-4.43,18.4.1,36.28-4.45,54.52-5.75C284.26,158.89,287.62,158.78,291,158.61Z" transform="translate(-222.81 -158.6)"/>
</svg>
