<svg xmlns="http://www.w3.org/2000/svg" width="50.21mm" height="36.3mm" viewBox="0 0 142.33 102.91">
  <defs>
    <style>
      .cls-1 {
        fill: #5eb566;
      }
    </style>
  </defs>
  <g id="Layer_2" data-name="Layer 2">
    <g id="Layer_1-2" data-name="Layer 1">
      <path class="cls-1" d="M68.15,0a81.79,81.79,0,0,1,18.34,1.7c19,4,28.61,16.82,33.49,34,1,3.41,1.36,7,2,10.46.31,1.59.14,3.05-1.42,4s-2.62,0-3.85-.73c-5-2.85-8.09-6.36-8.94-12.63C106,23.7,94,13.67,80.28,11.84c-10.58-1.4-20.9.4-31.27,1.61-10,1.17-19.91,2.72-29.87,4-2.25.29-3.85.5-2.87,3.4,5,14.81,10.41,29.44,19.22,42.58,7.93,11.84,17.89,21.06,33.07,22.86C82.32,87.9,94.49,84,105.33,75.73c2-1.5,1.66-2.4-.09-3.72-11.32-8.53-23-16.44-37.11-20-4.14-1-6.11-3.64-5.42-7s3.86-5.26,8.14-4.48c8.67,1.57,16.4,5.43,23.83,9.83,17.49,10.37,32.92,23,44.53,39.69A29,29,0,0,1,141.6,94c1.54,3.2.57,6.7-2.34,8.18-3.33,1.68-6.09.48-7.95-2.34a127.06,127.06,0,0,0-11.54-15.06c-2.11-2.35-3.49-2.46-6.09-.32-19.38,16-51.48,21-74.26,1.3C29.83,77.44,23,67.18,17.45,56,10.23,41.47,5.34,26.07.37,10.71c-1-3.13,0-4.44,3.2-4.43C22,6.38,39.86,1.83,58.1.53,61.45.29,64.8.18,68.15,0Z"/>
    </g>
  </g>
</svg>
